<svg xmlns="http://www.w3.org/2000/svg" xmlns:xlink="http://www.w3.org/1999/xlink" version="1.1" x="0px" y="0px" viewBox="0 0 100 125" style="enable-background:new 0 0 100 100;" xml:space="preserve"><path d="M44.3,39.6c0-3.2,2.6-5.7,5.7-5.7s5.7,2.6,5.7,5.7c0,3.2-2.6,5.7-5.7,5.7S44.3,42.8,44.3,39.6z M56.9,59.1  c-0.2-0.9-1-1.4-1.9-1.4H45c-0.9,0-1.7,0.6-1.9,1.4l-4.8,18.5c-0.3,1,0.4,2.1,1.4,2.4c1,0.3,2.1-0.4,2.4-1.4l4.4-17h7l4.4,17  c0.2,0.9,1,1.4,1.9,1.4c0.2,0,0.3,0,0.5-0.1c1-0.3,1.7-1.3,1.4-2.4L56.9,59.1z M77.5,23.9V34c0,2.1-1.7,3.9-3.9,3.9  s-3.9-1.7-3.9-3.9v-3.1h-0.5l-9.6,19.6c-0.3,0.7-1,1.1-1.7,1.1H42.1c-0.7,0-1.4-0.4-1.7-1.1l-9.6-19.6h-0.5V34  c0,2.1-1.7,3.9-3.9,3.9s-3.9-1.7-3.9-3.9V23.9c0-2.1,1.7-3.9,3.9-3.9s3.9,1.7,3.9,3.9V27h39.5v-3.1c0-2.1,1.7-3.9,3.9-3.9  S77.5,21.7,77.5,23.9z M64.9,30.9H35.1l8.2,16.8h13.3L64.9,30.9z"/><text x="0" y="115" fill="#000000" font-size="5px" font-weight="bold" font-family="'Helvetica Neue', Helvetica, Arial-Unicode, Arial, Sans-serif">Created by Mello</text><text x="0" y="120" fill="#000000" font-size="5px" font-weight="bold" font-family="'Helvetica Neue', Helvetica, Arial-Unicode, Arial, Sans-serif">from the Noun Project</text></svg>